<?xml version="1.0" encoding="UTF-8" standalone="no"?>
<!DOCTYPE svg PUBLIC "-//W3C//DTD SVG 1.1//EN" "http://www.w3.org/Graphics/SVG/1.1/DTD/svg11.dtd">
<svg width="100%" height="100%" viewBox="0 0 165 120" version="1.1" xmlns="http://www.w3.org/2000/svg" xmlns:xlink="http://www.w3.org/1999/xlink" xml:space="preserve" xmlns:serif="http://www.serif.com/" style="fill-rule:evenodd;clip-rule:evenodd;stroke-linejoin:round;stroke-miterlimit:2;">
    <g transform="matrix(1,0,0,1,-17.5,-40.4854)">
        <g transform="matrix(1.21022,0,0,1.21022,-7.86388,-21.3638)">
            <path d="M153.365,149.458L36.682,149.458C28.004,149.458 20.958,142.413 20.958,133.735L153.365,133.735C155.535,133.735 157.296,135.496 157.296,137.666L157.296,145.528C157.296,147.697 155.535,149.458 153.365,149.458Z" style="fill:rgb(228,228,228);"/>
        </g>
        <g transform="matrix(1.21022,0,0,1.21022,-7.86388,-27.4985)">
            <path d="M153.365,113.213L24.889,113.213C22.719,113.213 20.958,111.451 20.958,109.282L20.958,101.42C20.958,99.251 22.719,97.489 24.889,97.489L153.365,97.489C155.535,97.489 157.296,99.251 157.296,101.42L157.296,109.282C157.296,111.451 155.535,113.213 153.365,113.213Z" style="fill:rgb(228,228,228);"/>
        </g>
        <g transform="matrix(1.21022,0,0,1.21022,2.73394,-33.6331)">
            <path d="M148.539,76.967L16.132,76.967C13.962,76.967 12.201,75.206 12.201,73.036L12.201,65.175C12.201,63.005 13.962,61.244 16.132,61.244L132.816,61.244C141.494,61.244 148.539,68.289 148.539,76.967Z" style="fill:rgb(228,228,228);"/>
        </g>
    </g>
</svg>
